<?xml version="1.0" encoding="UTF-8"?>
<!DOCTYPE svg PUBLIC "-//W3C//DTD SVG 1.1//EN" "http://www.w3.org/Graphics/SVG/1.1/DTD/svg11.dtd">
<!-- Creator: CorelDRAW -->
<svg xmlns="http://www.w3.org/2000/svg" xml:space="preserve" width="512" height="512" style="shape-rendering:geometricPrecision; text-rendering:geometricPrecision; image-rendering:optimizeQuality; fill-rule:evenodd; clip-rule:evenodd"
viewBox="75 30 125 125"
 xmlns:xlink="http://www.w3.org/1999/xlink">
 <defs>
  <style type="text/css">
   <![CDATA[
    .fil0 {fill:none}
    .fil2 {fill:#0542A1}
    .fil1 {fill:#6CA5F5}
   ]]>
  </style>
 </defs>
 <g id="Layer_x0020_1">
  <metadata id="CorelCorpID_0Corel-Layer"/>
  <rect class="fil0" width="300" height="300"/>
  <path class="fil1" d="M84.0224 59.5943c0.9848,2.8563 3.7302,4.9758 6.893,4.9758 3.0766,0 6.0456,-2.3705 6.7762,-5.2648 1.2478,-4.9445 -2.0908,-7.9387 -6.4658,-8.4868 -0.122,-2.7518 2.4487,-5.4499 4.4935,-7.396 1.3562,-1.2905 -0.0567,-4.3629 -2.4456,-2.7971 -3.3826,2.2178 -6.8274,5.9184 -8.5363,9.9606 -1.0188,2.4098 -1.6211,6.3801 -0.715,9.0083z"/>
  <path class="fil2" d="M191.148 115.189c-0.9848,-2.8563 -3.7302,-4.9758 -6.893,-4.9758 -3.0766,0 -6.0456,2.3705 -6.7762,5.2648 -1.2478,4.9445 2.0908,7.9387 6.4658,8.4868 0.122,2.7518 -2.4487,5.4499 -4.4935,7.396 -1.3562,1.2905 0.0567,4.3629 2.4456,2.7971 3.3826,-2.2178 6.8274,-5.9184 8.5363,-9.9606 1.0188,-2.4098 1.6211,-6.3801 0.715,-9.0083z"/>
  <path class="fil1" d="M100.856 59.5943c0.9848,2.8563 3.7302,4.9758 6.893,4.9758 3.0766,0 6.0456,-2.3705 6.7762,-5.2648 1.2478,-4.9445 -2.0908,-7.9387 -6.4658,-8.4868 -0.122,-2.7518 2.4487,-5.4499 4.4935,-7.396 1.3562,-1.2905 -0.0567,-4.3629 -2.4456,-2.7971 -3.3826,2.2178 -6.8274,5.9184 -8.5363,9.9606 -1.0188,2.4098 -1.6211,6.3801 -0.715,9.0083z"/>
  <path class="fil2" d="M174.315 115.189c-0.9848,-2.8563 -3.7302,-4.9758 -6.893,-4.9758 -3.0766,0 -6.0456,2.3705 -6.7762,5.2648 -1.2478,4.9445 2.0908,7.9387 6.4658,8.4868 0.122,2.7518 -2.4487,5.4499 -4.4935,7.396 -1.3562,1.2905 0.0567,4.3629 2.4456,2.7971 3.3826,-2.2178 6.8274,-5.9184 8.5363,-9.9606 1.0188,-2.4098 1.6211,-6.3801 0.715,-9.0083z"/>
  <path class="fil2" d="M83.3548 86.1318l0 3.3602c0,7.0569 1.9761,14.3138 5.1337,20.6283 1.4787,2.9572 2.744,5.4768 4.879,8.002 0.6191,0.7323 5.8591,6.8342 5.9207,6.9479 -0.4888,2.8775 -3.1473,8.6681 -4.1424,11.7756 -0.7855,2.4534 -5.0374,10.643 0.2482,10.6331 1.7579,-0.0032 9.1417,-3.7468 11.2041,-4.7811 2.2253,-1.1161 8.8049,-5.8704 10.0793,-6.15 4.5709,0.9867 9.0101,3.3482 14.0011,3.3482l0.5674 -0.0533 2.7907 0.3333 2.8023 0c3.6276,0 16.4175,-1.2792 16.5157,-5.6006l0.0299 -0.8642c-0.6932,-1.1289 -1.1239,-1.9359 -2.8245,-1.9359 -1.0815,0 -4.7896,1.1218 -6.1089,1.4517 -1.2645,0.3163 -5.2311,1.0685 -6.4921,1.0685l-4.4803 0c-2.4264,0 -7.4911,-1.0636 -9.8059,-1.6749 -1.992,-0.5262 -6.9108,-3.0639 -8.6879,-2.2578 -1.2553,0.5694 -5.2966,3.6437 -6.818,4.663 -1.8553,1.2431 -5.5006,3.5616 -7.4508,4.0301 1.0756,-4.2394 2.8664,-8.8477 4.3038,-13.0577 1.1531,-3.3774 0.2061,-3.5745 -1.9936,-5.7738 -1.5305,-1.5304 -2.8962,-3.1403 -4.3366,-4.6241 -5.2561,-5.4145 -9.4545,-18.0286 -9.4545,-25.5482l0 -4.4804c0,-2.7706 0.4262,-5.16 1.1146,-7.8463 0.531,-2.0719 0.9377,-5.6006 -2.5073,-5.313 -4.1317,0.3449 -4.4877,10.6634 -4.4877,13.7194z"/>
  <path class="fil2" d="M181.363 85.8517l0 2.5202c0,3.015 -0.2104,6.0875 -1.0993,8.9815 -0.8132,2.6472 -1.3458,6.7044 2.7726,6.1326 3.7621,-0.5223 4.2071,-12.9282 4.2071,-15.9541l0 -1.6802c0,-7.6733 -2.1159,-15.3531 -5.5027,-22.2195 -6.1536,-12.476 -17.7362,-21.1873 -30.8516,-25.1527 -8.4668,-2.5601 -16.247,-2.2205 -24.759,-0.5801 -4.7163,0.9088 -3.7705,7.1017 1.7486,5.6669 4.1062,-1.0675 8.4149,-1.4274 12.6164,-0.8534 8.7496,1.1955 13.4561,2.3019 21.0812,6.9211 11.7495,7.1175 19.7867,22.6729 19.7867,36.2177z"/>
  <path class="fil1" d="M26.3368 208.074c0.6239,1.8095 2.3632,3.1522 4.3669,3.1522 1.949,0 3.83,-1.5017 4.2928,-3.3353 0.7905,-3.1324 -1.3245,-5.0293 -4.0962,-5.3765 -0.0773,-1.7433 1.5513,-3.4526 2.8467,-4.6856 0.8592,-0.8175 -0.0359,-2.7639 -1.5493,-1.7719 -2.1429,1.405 -4.3253,3.7494 -5.4079,6.3102 -0.6454,1.5266 -1.027,4.0419 -0.453,5.7069z"/>
  <path class="fil2" d="M94.2031 243.294c-0.6239,-1.8095 -2.3632,-3.1522 -4.3668,-3.1522 -1.9491,0 -3.8301,1.5017 -4.2929,3.3353 -0.7905,3.1324 1.3246,5.0293 4.0962,5.3765 0.0773,1.7433 -1.5513,3.4526 -2.8467,4.6855 -0.8592,0.8175 0.0359,2.764 1.5493,1.772 2.1429,-1.405 4.3253,-3.7494 5.4079,-6.3102 0.6454,-1.5266 1.027,-4.0419 0.453,-5.7069z"/>
  <path class="fil1" d="M37.0012 208.074c0.6239,1.8095 2.3632,3.1522 4.3668,3.1522 1.9491,0 3.83,-1.5017 4.2929,-3.3353 0.7905,-3.1324 -1.3246,-5.0293 -4.0962,-5.3765 -0.0773,-1.7433 1.5513,-3.4526 2.8467,-4.6856 0.8592,-0.8175 -0.0359,-2.7639 -1.5493,-1.7719 -2.143,1.405 -4.3253,3.7494 -5.4079,6.3102 -0.6454,1.5266 -1.027,4.0419 -0.453,5.7069z"/>
  <path class="fil2" d="M83.5387 243.294c-0.6239,-1.8095 -2.3632,-3.1522 -4.3668,-3.1522 -1.9491,0 -3.83,1.5017 -4.2929,3.3353 -0.7905,3.1324 1.3246,5.0293 4.0962,5.3765 0.0773,1.7433 -1.5513,3.4526 -2.8467,4.6855 -0.8592,0.8175 0.0359,2.764 1.5493,1.772 2.143,-1.405 4.3253,-3.7494 5.4079,-6.3102 0.6454,-1.5266 1.027,-4.0419 0.453,-5.7069z"/>
  <path class="fil2" d="M25.9139 224.886l0 2.1287c0,4.4707 1.2519,9.0681 3.2523,13.0684 0.9368,1.8735 1.7383,3.4697 3.0909,5.0694 0.3922,0.4639 3.7118,4.3296 3.7509,4.4017 -0.3097,1.8229 -1.9939,5.4914 -2.6243,7.46 -0.4976,1.5543 -3.1913,6.7425 0.1573,6.7363 1.1136,-0.0021 5.7914,-2.3737 7.098,-3.029 1.4097,-0.707 5.578,-3.7189 6.3853,-3.8961 2.8958,0.6251 5.7081,2.1211 8.87,2.1211l0.3595 -0.0337 1.7679 0.2111 1.7754 0c2.2981,0 10.4007,-0.8104 10.4629,-3.5481l0.019 -0.5474c-0.4392,-0.7152 -0.712,-1.2265 -1.7894,-1.2265 -0.6852,0 -3.0343,0.7107 -3.8701,0.9197 -0.8011,0.2004 -3.314,0.6769 -4.1129,0.6769l-2.8383 0c-1.5372,0 -4.7457,-0.6737 -6.2122,-1.0611 -1.262,-0.3333 -4.3781,-1.941 -5.504,-1.4303 -0.7953,0.3608 -3.3555,2.3084 -4.3193,2.9541 -1.1754,0.7876 -3.4847,2.2563 -4.7202,2.5532 0.6814,-2.6858 1.8159,-5.6053 2.7265,-8.2723 0.7305,-2.1397 0.1306,-2.2645 -1.263,-3.6579 -0.9696,-0.9695 -1.8348,-1.9894 -2.7473,-2.9294 -3.3298,-3.4302 -5.9896,-11.4214 -5.9896,-16.1853l0 -2.8384c0,-1.7552 0.27,-3.2689 0.7062,-4.9707 0.3363,-1.3126 0.594,-3.5481 -1.5885,-3.3659 -2.6175,0.2185 -2.843,6.7554 -2.843,8.6915z"/>
  <path class="fil2" d="M88.0035 224.708l0 1.5966c0,1.9101 -0.1333,3.8566 -0.6964,5.69 -0.5151,1.677 -0.8526,4.2473 1.7565,3.8851 2.3834,-0.3309 2.6653,-8.1903 2.6653,-10.1072l0 -1.0645c0,-4.8611 -1.3405,-9.7264 -3.4861,-14.0764 -3.8984,-7.9038 -11.2362,-13.4226 -19.545,-15.9347 -5.3639,-1.6219 -10.2928,-1.4067 -15.6853,-0.3675 -2.9878,0.5758 -2.3887,4.499 1.1078,3.5901 2.6013,-0.6763 5.3309,-0.9043 7.9927,-0.5407 5.543,0.7574 8.5247,1.4583 13.3553,4.3847 7.4435,4.509 12.5352,14.3636 12.5352,22.9445z"/>
  <path class="fil2" d="M111.008 245.546l3.7914 -0.3729c0.2246,1.2758 0.6873,2.2102 1.3881,2.8077 0.6963,0.5929 1.6352,0.8939 2.8211,0.8939 1.2533,0 2.2012,-0.265 2.8346,-0.7996 0.6379,-0.5301 0.9568,-1.15 0.9568,-1.8598 0,-0.4582 -0.1347,-0.8445 -0.4043,-1.1634 -0.265,-0.3235 -0.7322,-0.602 -1.4015,-0.8356 -0.4537,-0.1617 -1.4959,-0.4402 -3.1176,-0.8445 -2.0889,-0.5166 -3.5533,-1.1545 -4.3934,-1.9092 -1.1859,-1.0602 -1.7789,-2.3539 -1.7789,-3.8813 0,-0.9838 0.2785,-1.9002 0.8355,-2.7582 0.5571,-0.8535 1.3612,-1.5049 2.4079,-1.9541 1.0511,-0.4447 2.3134,-0.6693 3.7959,-0.6693 2.4258,0 4.2451,0.53 5.4715,1.5902 1.2219,1.0647 1.8642,2.4797 1.9271,4.2541l-3.8947 0.1707c-0.1662,-0.9928 -0.5256,-1.707 -1.0736,-2.1383 -0.5481,-0.4357 -1.3702,-0.6513 -2.4663,-0.6513 -1.132,0 -2.0215,0.2291 -2.6593,0.6963 -0.4133,0.2964 -0.62,0.6963 -0.62,1.1949 0,0.4582 0.1932,0.849 0.5795,1.1725 0.4897,0.4132 1.6846,0.8445 3.5803,1.2892 1.8957,0.4492 3.2973,0.9119 4.2047,1.3881 0.9074,0.4807 1.6172,1.132 2.1338,1.9631 0.5121,0.831 0.7682,1.8553 0.7682,3.0727 0,1.105 -0.3055,2.1427 -0.9209,3.1041 -0.6155,0.9658 -1.4825,1.6845 -2.6055,2.1517 -1.1231,0.4717 -2.5246,0.7053 -4.2002,0.7053 -2.4393,0 -4.3125,-0.5615 -5.6198,-1.6891 -1.3072,-1.1275 -2.0888,-2.7716 -2.3404,-4.9279zm128.622 -13.8164c1.1028,0 2.0022,0.8994 2.0022,2.0022 0,1.1028 -0.8994,2.0022 -2.0022,2.0022 -1.1028,0 -2.0022,-0.8994 -2.0022,-2.0022 0,-1.1028 0.8994,-2.0022 2.0022,-2.0022zm-106.92 10.3799l-3.3556 -0.6065c0.3773,-1.3521 1.0242,-2.3494 1.9451,-3.0008 0.9254,-0.6468 2.291,-0.9748 4.1059,-0.9748 1.6531,0 2.8795,0.1977 3.6881,0.5885 0.8041,0.3908 1.3746,0.885 1.7025,1.4869 0.3279,0.602 0.4941,1.7026 0.4941,3.3108l-0.0404 4.317c0,1.2263 0.0584,2.1338 0.1797,2.7178 0.1168,0.5794 0.3414,1.2084 0.6648,1.8732l-3.6611 0c-0.0943,-0.2471 -0.2156,-0.6109 -0.3549,-1.0916 -0.0584,-0.2201 -0.1033,-0.3639 -0.1303,-0.4357 -0.6334,0.6154 -1.3072,1.0736 -2.0259,1.3835 -0.7188,0.3055 -1.487,0.4583 -2.3045,0.4583 -1.4375,0 -2.5741,-0.3909 -3.4006,-1.168 -0.8311,-0.7817 -1.2444,-1.7699 -1.2444,-2.9649 0,-0.7861 0.1887,-1.4914 0.566,-2.1113 0.3774,-0.6199 0.9075,-1.0916 1.5858,-1.4195 0.6783,-0.328 1.6621,-0.6155 2.9424,-0.8625 1.725,-0.3235 2.9244,-0.6289 3.5893,-0.9075l0 -0.3683c0,-0.7143 -0.1752,-1.2174 -0.5256,-1.5229 -0.3504,-0.301 -1.0108,-0.4537 -1.9856,-0.4537 -0.6603,0 -1.1725,0.1303 -1.5408,0.3908 -0.3684,0.2561 -0.6649,0.7098 -0.894,1.3612zm4.946 3.0008c-0.4717,0.1572 -1.2219,0.3459 -2.2506,0.566 -1.0243,0.2201 -1.6936,0.4357 -2.0125,0.6424 -0.4807,0.3459 -0.7233,0.7771 -0.7233,1.3027 0,0.5211 0.1932,0.9658 0.5795,1.3432 0.3863,0.3773 0.876,0.566 1.4734,0.566 0.6694,0 1.3028,-0.2201 1.9092,-0.6559 0.4493,-0.3324 0.7412,-0.7412 0.8805,-1.2264 0.0988,-0.3144 0.1438,-0.9164 0.1438,-1.8013l0 -0.7367zm19.9903 6.7113l-3.6971 0 0 -7.1336c0,-1.5094 -0.0809,-2.4842 -0.2381,-2.9289 -0.1572,-0.4403 -0.4178,-0.7862 -0.7727,-1.0332 -0.3548,-0.2426 -0.7816,-0.3684 -1.2802,-0.3684 -0.6424,0 -1.2174,0.1752 -1.725,0.5256 -0.5077,0.3549 -0.8581,0.8176 -1.0467,1.3971 -0.1887,0.5795 -0.283,1.6486 -0.283,3.2119l0 6.3295 -3.6971 0 0 -13.9752 3.432 0 0 2.0529c1.2219,-1.5813 2.7582,-2.3719 4.609,-2.3719 0.8131,0 1.5633,0.1483 2.2371,0.4403 0.6739,0.2964 1.186,0.6693 1.5319,1.1275 0.3459,0.4582 0.5885,0.9748 0.7232,1.5543 0.1393,0.5795 0.2067,1.4061 0.2067,2.4842l0 8.6879zm2.4527 -3.9891l3.7106 -0.566c0.1572,0.7188 0.4761,1.2668 0.9613,1.6397 0.4807,0.3728 1.1545,0.5615 2.026,0.5615 0.9568,0 1.6756,-0.1752 2.1562,-0.5301 0.328,-0.2426 0.4897,-0.575 0.4897,-0.9838 0,-0.283 -0.0899,-0.5166 -0.2651,-0.7008 -0.1841,-0.1752 -0.5974,-0.3369 -1.2353,-0.4851 -2.9828,-0.6559 -4.8741,-1.2578 -5.6737,-1.8014 -1.105,-0.7547 -1.6576,-1.8059 -1.6576,-3.149 0,-1.2084 0.4762,-2.2282 1.433,-3.0502 0.9569,-0.8266 2.4393,-1.2399 4.4473,-1.2399 1.9137,0 3.3377,0.3145 4.2676,0.9344 0.9299,0.6244 1.5678,1.5453 1.9182,2.7672l-3.486 0.6424c-0.1482,-0.5436 -0.4312,-0.9614 -0.849,-1.2489 -0.4178,-0.2919 -1.0108,-0.4357 -1.7834,-0.4357 -0.9748,0 -1.6711,0.1348 -2.0934,0.4088 -0.2785,0.1932 -0.4178,0.4447 -0.4178,0.7502 0,0.265 0.1213,0.4851 0.3684,0.6693 0.3324,0.2471 1.4824,0.593 3.4545,1.0422 1.9676,0.4447 3.3422,0.9928 4.1238,1.6442 0.7727,0.6603 1.159,1.5767 1.159,2.7492 0,1.2803 -0.5345,2.3853 -1.6082,3.3062 -1.0691,0.9209 -2.6504,1.3792 -4.7482,1.3792 -1.9047,0 -3.4096,-0.3864 -4.5237,-1.159 -1.1095,-0.7682 -1.8328,-1.8194 -2.1742,-3.1446zm23.7817 3.9891l0 -19.294 3.6971 0 0 19.294 -3.6971 0zm7.493 0l0 -19.294 3.6971 0 0 19.294 -3.6971 0zm7.493 0l0 -19.294 3.6971 0 0 19.294 -3.6971 0zm16.6931 0l0 -2.0934c-0.5121,0.7457 -1.1815,1.3342 -2.008,1.7655 -0.8311,0.4267 -1.7071,0.6424 -2.628,0.6424 -0.9389,0 -1.7789,-0.2067 -2.5246,-0.6155 -0.7457,-0.4133 -1.2848,-0.9928 -1.6217,-1.7385 -0.3324,-0.7457 -0.4986,-1.7789 -0.4986,-3.0951l0 -8.8406 3.6971 0 0 6.4193c0,1.9676 0.0673,3.1715 0.2066,3.6162 0.1348,0.4403 0.3818,0.7907 0.7412,1.0512 0.3594,0.2606 0.8176,0.3863 1.3701,0.3863 0.6334,0 1.1995,-0.1707 1.6981,-0.5166 0.4986,-0.3504 0.84,-0.7771 1.0242,-1.2892 0.1842,-0.5166 0.2785,-1.7744 0.2785,-3.7735l0 -5.8937 3.6971 0 0 13.9752 -3.432 0zm5.9656 -3.9891l3.7106 -0.566c0.1572,0.7188 0.4761,1.2668 0.9613,1.6397 0.4807,0.3728 1.1545,0.5615 2.026,0.5615 0.9568,0 1.6756,-0.1752 2.1562,-0.5301 0.328,-0.2426 0.4897,-0.575 0.4897,-0.9838 0,-0.283 -0.0899,-0.5166 -0.2651,-0.7008 -0.1841,-0.1752 -0.5974,-0.3369 -1.2353,-0.4851 -2.9828,-0.6559 -4.8741,-1.2578 -5.6737,-1.8014 -1.105,-0.7547 -1.6576,-1.8059 -1.6576,-3.149 0,-1.2084 0.4762,-2.2282 1.433,-3.0502 0.9569,-0.8266 2.4393,-1.2399 4.4473,-1.2399 1.9137,0 3.3377,0.3145 4.2676,0.9344 0.9299,0.6244 1.5678,1.5453 1.9182,2.7672l-3.486 0.6424c-0.1482,-0.5436 -0.4312,-0.9614 -0.849,-1.2489 -0.4178,-0.2919 -1.0108,-0.4357 -1.7834,-0.4357 -0.9748,0 -1.6711,0.1348 -2.0934,0.4088 -0.2785,0.1932 -0.4178,0.4447 -0.4178,0.7502 0,0.265 0.1213,0.4851 0.3684,0.6693 0.3324,0.2471 1.4824,0.593 3.4545,1.0422 1.9676,0.4447 3.3422,0.9928 4.1238,1.6442 0.7727,0.6603 1.159,1.5767 1.159,2.7492 0,1.2803 -0.5345,2.3853 -1.6082,3.3062 -1.0691,0.9209 -2.6504,1.3792 -4.7482,1.3792 -1.9047,0 -3.4096,-0.3864 -4.5237,-1.159 -1.1095,-0.7682 -1.8328,-1.8194 -2.1742,-3.1446zm16.2887 3.9891l0 -13.9752 3.6971 0 0 13.9752 -3.6971 0zm6.635 -7.1875c0,-1.2264 0.3055,-2.4168 0.9075,-3.5668 0.6064,-1.1455 1.4644,-2.026 2.574,-2.628 1.1096,-0.6064 2.3494,-0.9119 3.7195,-0.9119 2.1114,0 3.8453,0.6873 5.1975,2.0619 1.3522,1.3747 2.026,3.1086 2.026,5.2065 0,2.1113 -0.6828,3.8633 -2.044,5.2559 -1.3656,1.3926 -3.0816,2.0844 -5.1525,2.0844 -1.2848,0 -2.5022,-0.2875 -3.6657,-0.867 -1.1634,-0.5795 -2.0484,-1.4286 -2.6548,-2.5471 -0.602,-1.1186 -0.9075,-2.4797 -0.9075,-4.0879zm3.7914 0.1976c0,1.3881 0.328,2.4483 0.9883,3.185 0.6559,0.7367 1.469,1.1051 2.4348,1.1051 0.9658,0 1.7744,-0.3684 2.4258,-1.1051 0.6559,-0.7367 0.9838,-1.8059 0.9838,-3.2119 0,-1.3656 -0.3279,-2.4213 -0.9838,-3.158 -0.6514,-0.7368 -1.46,-1.1051 -2.4258,-1.1051 -0.9658,0 -1.7789,0.3683 -2.4348,1.1051 -0.6603,0.7367 -0.9883,1.8013 -0.9883,3.1849zm26.248 6.9899l-3.6971 0 0 -7.1336c0,-1.5094 -0.0809,-2.4842 -0.2381,-2.9289 -0.1572,-0.4403 -0.4178,-0.7862 -0.7727,-1.0332 -0.3548,-0.2426 -0.7816,-0.3684 -1.2802,-0.3684 -0.6424,0 -1.2174,0.1752 -1.725,0.5256 -0.5077,0.3549 -0.8581,0.8176 -1.0467,1.3971 -0.1887,0.5795 -0.283,1.6486 -0.283,3.2119l0 6.3295 -3.6971 0 0 -13.9752 3.432 0 0 2.0529c1.2219,-1.5813 2.7582,-2.3719 4.609,-2.3719 0.8131,0 1.5633,0.1483 2.2371,0.4403 0.6739,0.2964 1.186,0.6693 1.5319,1.1275 0.3459,0.4582 0.5885,0.9748 0.7232,1.5543 0.1393,0.5795 0.2067,1.4061 0.2067,2.4842l0 8.6879z"/>
  <path class="fil2" d="M211.109 204.312c1.1028,0 2.0022,0.8994 2.0022,2.0022 0,1.1028 -0.8994,2.0022 -2.0022,2.0022 -1.1028,0 -2.0022,-0.8994 -2.0022,-2.0022 0,-1.1028 0.8994,-2.0022 2.0022,-2.0022zm-98.9272 20.8113l0 -20.9055 13.5069 0 0 3.5386 -9.5259 0 0 4.9453 8.2234 0 0 3.5386 -8.2234 0 0 8.883 -3.981 0zm68.0811 0.2327c0.1053,0.0728 0.2079,0.1483 0.3069,0.2265l-0.5364 1.748 1.7143 0.3308 0.0969 1.0977c-1.3279,-0.01 -2.7895,-0.6755 -2.7226,1.0239 0.0242,0.943 0.3055,1.1202 1.3999,1.1202l0.8401 0c1.5432,0 3.0802,-0.8187 3.0802,-2.5201 0,-0.9718 -0.2771,-1.2548 -0.9119,-1.8884l-1.0017 -0.1009 -0.0341 -0.9671c1.4338,-0.1261 2.6053,-0.5732 3.5184,-1.3449 1.0905,-0.9214 1.8346,-2.2877 2.2199,-4.0935l-3.7104 -0.6668c-0.188,1.0513 -0.5091,1.7961 -0.9678,2.2292 -0.4586,0.4331 -1.041,0.6474 -1.7611,0.6474 -0.9586,0 -1.72,-0.3699 -2.2886,-1.1097 -0.5687,-0.7399 -0.8531,-2.0103 -0.8531,-3.8063 0,-1.616 0.2787,-2.7707 0.8393,-3.4608 0.5583,-0.6873 1.3071,-1.0319 2.2519,-1.0319 0.7063,0 1.2797,0.1995 1.7245,0.5987 0.4449,0.3991 0.7292,0.9929 0.8531,1.7815l3.7242 -0.7107c-0.4496,-1.6257 -1.1872,-2.8389 -2.2107,-3.6311 -1.0265,-0.7944 -2.4079,-1.1925 -4.1461,-1.1925 -2.1235,0 -3.8068,0.6961 -5.0542,2.093 -1.243,1.3919 -1.8667,3.339 -1.8667,5.836 0,2.4727 0.6204,4.4087 1.8621,5.8069 0.9579,1.0787 2.1693,1.7401 3.6337,1.9849zm-46.5721 -0.2327l-3.7746 0 0 -15.1425 3.504 0 0 2.1514c0.6008,-1.0173 1.142,-1.689 1.619,-2.0103 0.4816,-0.3211 1.0228,-0.4867 1.6327,-0.4867 0.8624,0 1.6879,0.2531 2.4859,0.7593l-1.1695 3.49c-0.6329,-0.4332 -1.2246,-0.6522 -1.7704,-0.6522 -0.532,0 -0.9769,0.1508 -1.3438,0.4623 -0.3715,0.3067 -0.6559,0.8664 -0.8668,1.6744 -0.211,0.808 -0.3165,2.5019 -0.3165,5.0768l0 4.6775zm11.0428 -10.5233l-3.4259 -0.6571c0.3852,-1.4651 1.0456,-2.5457 1.9859,-3.2515 0.9448,-0.7008 2.339,-1.0562 4.192,-1.0562 1.6877,0 2.9398,0.2142 3.7654,0.6377 0.821,0.4234 1.4034,0.9589 1.7382,1.611 0.3348,0.6523 0.5045,1.8449 0.5045,3.5874l-0.0413 4.6776c0,1.3287 0.0596,2.312 0.1835,2.9448 0.1192,0.6278 0.3485,1.3093 0.6787,2.0296l-3.7378 0c-0.0963,-0.2677 -0.2202,-0.6619 -0.3624,-1.1827 -0.0596,-0.2385 -0.1055,-0.3943 -0.133,-0.4721 -0.6467,0.6668 -1.3346,1.1632 -2.0684,1.499 -0.7339,0.331 -1.5182,0.4966 -2.3528,0.4966 -1.4677,0 -2.6281,-0.4236 -3.472,-1.2656 -0.8485,-0.847 -1.2704,-1.9177 -1.2704,-3.2125 0,-0.8518 0.1926,-1.616 0.5778,-2.2877 0.3853,-0.6716 0.9266,-1.1827 1.6191,-1.538 0.6925,-0.3554 1.6969,-0.6669 3.0041,-0.9346 1.7612,-0.3505 2.9857,-0.6814 3.6646,-0.9833l0 -0.399c0,-0.774 -0.1789,-1.3191 -0.5367,-1.6501 -0.3577,-0.3262 -1.032,-0.4916 -2.0272,-0.4916 -0.6742,0 -1.1971,0.1412 -1.5731,0.4234 -0.3761,0.2775 -0.6789,0.7691 -0.9128,1.4749zm5.0498 3.2515c-0.4816,0.1703 -1.2476,0.3748 -2.2978,0.6132 -1.0458,0.2385 -1.7292,0.4721 -2.0547,0.6961 -0.4908,0.3748 -0.7385,0.842 -0.7385,1.4115 0,0.5646 0.1972,1.0465 0.5916,1.4554 0.3944,0.4088 0.8944,0.6133 1.5043,0.6133 0.6835,0 1.3302,-0.2385 1.9493,-0.7107 0.4587,-0.3602 0.7567,-0.8031 0.8989,-1.3288 0.1009,-0.3407 0.1469,-0.993 0.1469,-1.9518l0 -0.7982zm21.5411 7.2718l-3.7746 0 0 -7.7294c0,-1.6355 -0.0826,-2.6917 -0.2431,-3.1735 -0.1605,-0.4771 -0.4266,-0.8519 -0.7889,-1.1195 -0.3622,-0.2629 -0.798,-0.3992 -1.3071,-0.3992 -0.6558,0 -1.2429,0.1898 -1.7611,0.5695 -0.5184,0.3845 -0.8761,0.8859 -1.0687,1.5138 -0.1926,0.6279 -0.2889,1.7863 -0.2889,3.4802l0 6.8581 -3.7746 0 0 -15.1425 3.5039 0 0 2.2244c1.2475,-1.7134 2.8161,-2.57 4.7057,-2.57 0.8301,0 1.5961,0.1607 2.284,0.4771 0.688,0.3211 1.2109,0.7252 1.564,1.2216 0.3532,0.4965 0.6009,1.0563 0.7384,1.6842 0.1422,0.6279 0.211,1.5235 0.211,2.6917l0 9.4135zm24.2184 -10.5233l-3.426 -0.6571c0.3852,-1.4651 1.0457,-2.5457 1.9859,-3.2515 0.9448,-0.7008 2.339,-1.0562 4.192,-1.0562 1.6878,0 2.9399,0.2142 3.7655,0.6377 0.8209,0.4234 1.4034,0.9589 1.7382,1.611 0.3347,0.6523 0.5044,1.8449 0.5044,3.5874l-0.0412 4.6776c0,1.3287 0.0596,2.312 0.1834,2.9448 0.1193,0.6278 0.3486,1.3093 0.6788,2.0296l-3.7379 0c-0.0963,-0.2677 -0.2201,-0.6619 -0.3623,-1.1827 -0.0597,-0.2385 -0.1055,-0.3943 -0.1331,-0.4721 -0.6467,0.6668 -1.3346,1.1632 -2.0684,1.499 -0.7338,0.331 -1.5181,0.4966 -2.3528,0.4966 -1.4676,0 -2.6281,-0.4236 -3.4719,-1.2656 -0.8485,-0.847 -1.2705,-1.9177 -1.2705,-3.2125 0,-0.8518 0.1927,-1.616 0.5779,-2.2877 0.3853,-0.6716 0.9265,-1.1827 1.619,-1.538 0.6926,-0.3554 1.697,-0.6669 3.0041,-0.9346 1.7612,-0.3505 2.9858,-0.6814 3.6646,-0.9833l0 -0.399c0,-0.774 -0.1789,-1.3191 -0.5366,-1.6501 -0.3578,-0.3262 -1.032,-0.4916 -2.0273,-0.4916 -0.6741,0 -1.197,0.1412 -1.5731,0.4234 -0.3761,0.2775 -0.6788,0.7691 -0.9127,1.4749zm5.0497 3.2515c-0.4816,0.1703 -1.2475,0.3748 -2.2978,0.6132 -1.0458,0.2385 -1.7291,0.4721 -2.0547,0.6961 -0.4908,0.3748 -0.7385,0.842 -0.7385,1.4115 0,0.5646 0.1973,1.0465 0.5917,1.4554 0.3944,0.4088 0.8944,0.6133 1.5043,0.6133 0.6834,0 1.3301,-0.2385 1.9492,-0.7107 0.4587,-0.3602 0.7568,-0.8031 0.899,-1.3288 0.1009,-0.3407 0.1468,-0.993 0.1468,-1.9518l0 -0.7982zm8.5616 7.2718l0 -15.1425 3.7746 0 0 15.1425 -3.7746 0zm7.4517 -4.3223l3.7884 -0.6132c0.1605,0.7788 0.4861,1.3726 0.9815,1.7766 0.4908,0.404 1.1787,0.6084 2.0685,0.6084 0.9769,0 1.7107,-0.1898 2.2014,-0.5744 0.3349,-0.2628 0.5,-0.623 0.5,-1.0659 0,-0.3067 -0.0918,-0.5598 -0.2707,-0.7594 -0.1879,-0.1898 -0.6099,-0.365 -1.2612,-0.5256 -3.0453,-0.7107 -4.9763,-1.3628 -5.7927,-1.9518 -1.1281,-0.8178 -1.6923,-1.9568 -1.6923,-3.4121 0,-1.3093 0.4862,-2.4143 1.463,-3.3049 0.977,-0.8957 2.4905,-1.3435 4.5406,-1.3435 1.9538,0 3.4077,0.3408 4.3571,1.0124 0.9494,0.6766 1.6007,1.6744 1.9584,2.9984l-3.5591 0.696c-0.1513,-0.589 -0.4402,-1.0417 -0.8668,-1.3532 -0.4266,-0.3163 -1.032,-0.4721 -1.8208,-0.4721 -0.9952,0 -1.7061,0.1461 -2.1373,0.443 -0.2843,0.2093 -0.4266,0.4818 -0.4266,0.8128 0,0.2872 0.1239,0.5256 0.3762,0.7252 0.3393,0.2678 1.5134,0.6426 3.5269,1.1293 2.0089,0.4818 3.4123,1.0757 4.2103,1.7815 0.7889,0.7155 1.1833,1.7084 1.1833,2.9788 0,1.3873 -0.5457,2.5846 -1.6419,3.5824 -1.0916,0.9978 -2.706,1.4944 -4.8478,1.4944 -1.9447,0 -3.4811,-0.4187 -4.6186,-1.2558 -1.1327,-0.8324 -1.8712,-1.9714 -2.2198,-3.4073z"/>
 </g>
</svg>
